# xmcd CD database file
#
# Track frame offsets:
#	150
#	13995
#	27267
#	42304
#	54486
#	73922
#	93156
#	108335
#	124769
#	142947
#	157738
#	169193
#	184852
#	198429
#	211259
#	223273
#	238686
#	250685
#	262223
#	274045
#	286159
#	301586
#	313353
#	326692
#
# Disc length: 4543 seconds
#
# Revision: 0
# Processed by: cddbd v1.5.2PL0 Copyright (c) Steve Scherf et al.
# Submitted via: CDex 1.51
#
DISCID=6311bd18
DTITLE=Woody Herman - The Herd Rides Again and The Fourth Herd
DYEAR=2015
DGENRE=Jazz
TTITLE0=Northwest Passage
TTITLE1=Caldonia
TTITLE2=Wild Root
TTITLE3=The Good Earth
TTITLE4=Blowin' Up A Storm
TTITLE5=It's Coolin' Time
TTITLE6=I Cover The Waterfront
TTITLE7=Crazy Rhythm
TTITLE8=Sinbad The Sailor
TTITLE9=Fire Island
TTITLE10=Black Orchid
TTITLE11=Bijou
TTITLE12=Panatela
TTITLE13=Lament For Linda
TTITLE14=Misery, Stay Way From My Door
TTITLE15=In A Misty Mood
TTITLE16=Catty' Corner
TTITLE17=The Thirteenth Instant
TTITLE18=The Magpie
TTITLE19=Blues For Indian Jim
TTITLE20=The Devil And The Stoker
TTITLE21=The Swing Machine
TTITLE22=Summer Nights
TTITLE23=Johnny On The Spot
EXTD=YEAR: 2015
EXTT0=
EXTT1=
EXTT2=
EXTT3=
EXTT4=
EXTT5=
EXTT6=
EXTT7=
EXTT8=
EXTT9=
EXTT10=
EXTT11=
EXTT12=
EXTT13=
EXTT14=
EXTT15=
EXTT16=
EXTT17=
EXTT18=
EXTT19=
EXTT20=
EXTT21=
EXTT22=
EXTT23=
PLAYORDER=
